<svg id="svg" version="1.1" width="400" height="151.12174693389173" viewBox="0 0 400 151.12174693389173" xmlns="http://www.w3.org/2000/svg" xmlns:xlink="http://www.w3.org/1999/xlink" ><g id="svgg"><path id="path0" d="M268.875 28.615 C 269.035 28.657,269.298 28.657,269.458 28.615 C 269.619 28.573,269.487 28.539,269.167 28.539 C 268.846 28.539,268.715 28.573,268.875 28.615 M266.062 47.000 C 266.062 47.962,266.089 48.356,266.123 47.875 C 266.157 47.394,266.157 46.606,266.123 46.125 C 266.089 45.644,266.062 46.038,266.062 47.000 M328.399 48.250 C 328.399 49.533,328.426 50.036,328.457 49.368 C 328.489 48.699,328.489 47.649,328.457 47.034 C 328.425 46.420,328.399 46.967,328.399 48.250 M361.728 112.250 C 361.728 113.167,361.756 113.520,361.790 113.036 C 361.824 112.552,361.823 111.802,361.789 111.369 C 361.755 110.937,361.727 111.333,361.728 112.250 M305.209 118.917 C 305.211 119.283,305.245 119.414,305.285 119.206 C 305.324 118.999,305.323 118.699,305.281 118.540 C 305.239 118.380,305.207 118.550,305.209 118.917 M305.205 120.167 C 305.205 120.487,305.240 120.619,305.282 120.458 C 305.323 120.298,305.323 120.035,305.282 119.875 C 305.240 119.715,305.205 119.846,305.205 120.167 M355.705 120.500 C 355.705 120.821,355.740 120.952,355.782 120.792 C 355.823 120.631,355.823 120.369,355.782 120.208 C 355.740 120.048,355.705 120.179,355.705 120.500 M200.733 122.583 C 200.734 123.958,200.759 124.499,200.791 123.784 C 200.822 123.069,200.822 121.944,200.790 121.284 C 200.759 120.624,200.733 121.208,200.733 122.583 M301.539 121.333 C 301.539 121.654,301.573 121.785,301.615 121.625 C 301.657 121.465,301.657 121.202,301.615 121.042 C 301.573 120.881,301.539 121.013,301.539 121.333 M275.372 125.333 C 275.372 125.654,275.406 125.785,275.448 125.625 C 275.490 125.465,275.490 125.202,275.448 125.042 C 275.406 124.881,275.372 125.013,275.372 125.333 M254.545 126.667 C 254.545 127.079,254.578 127.248,254.618 127.042 C 254.657 126.835,254.657 126.498,254.618 126.292 C 254.578 126.085,254.545 126.254,254.545 126.667 M310.705 127.167 C 310.705 127.487,310.740 127.619,310.782 127.458 C 310.823 127.298,310.823 127.035,310.782 126.875 C 310.740 126.715,310.705 126.846,310.705 127.167 M254.539 128.333 C 254.539 128.654,254.573 128.785,254.615 128.625 C 254.657 128.465,254.657 128.202,254.615 128.042 C 254.573 127.881,254.539 128.012,254.539 128.333 " stroke="none" fill="#ffffff" fill-rule="evenodd"></path><path id="path1" d="M219.417 9.336 C 217.950 9.397,216.075 9.539,215.250 9.651 C 211.117 10.212,210.140 10.355,208.833 10.594 C 208.054 10.737,207.079 10.914,206.667 10.988 C 202.446 11.746,198.747 13.534,198.070 15.145 C 197.757 15.889,197.762 18.705,198.080 21.833 C 198.548 26.427,198.976 26.993,201.192 25.954 C 201.866 25.638,202.679 25.282,203.000 25.162 C 203.321 25.042,203.666 24.882,203.766 24.806 C 203.867 24.730,204.542 24.479,205.266 24.247 C 215.163 21.083,226.819 21.916,230.917 26.080 C 237.043 32.303,234.171 43.478,226.038 45.064 C 224.040 45.454,219.330 45.193,212.439 44.311 C 209.307 43.910,205.614 43.827,205.167 44.147 C 204.212 44.831,203.773 46.624,203.580 50.621 C 203.431 53.720,203.496 54.049,204.379 54.632 L 205.062 55.083 213.145 55.025 C 226.878 54.926,231.091 55.831,234.867 59.691 C 238.314 63.215,239.165 70.361,236.723 75.269 C 233.442 81.863,221.627 84.447,210.667 80.968 C 208.665 80.333,205.645 79.216,204.417 78.656 C 203.867 78.405,202.929 77.979,202.333 77.709 C 201.737 77.439,200.740 76.968,200.117 76.662 L 198.985 76.106 198.605 76.511 C 198.203 76.940,197.837 77.762,197.496 79.000 C 197.383 79.412,197.192 80.050,197.073 80.417 C 196.953 80.783,196.653 81.758,196.404 82.583 C 196.156 83.408,195.786 84.608,195.583 85.250 C 195.379 85.892,195.042 86.976,194.834 87.660 L 194.454 88.904 195.049 89.410 C 195.375 89.689,196.454 90.242,197.446 90.641 C 198.438 91.039,199.381 91.433,199.541 91.517 C 200.724 92.135,207.235 93.989,209.917 94.472 C 213.038 95.033,213.979 95.165,217.833 95.581 C 219.741 95.787,225.565 95.847,227.820 95.684 C 230.884 95.462,232.552 95.204,235.667 94.472 C 237.953 93.934,243.352 91.750,243.833 91.169 C 243.879 91.114,244.434 90.745,245.066 90.349 C 247.126 89.061,249.509 86.924,250.753 85.250 C 251.025 84.883,251.288 84.546,251.338 84.500 C 253.048 82.913,255.037 77.029,255.339 72.667 C 256.089 61.846,251.949 54.583,242.878 50.806 L 241.633 50.288 242.192 49.951 C 252.503 43.732,255.871 27.644,248.597 19.354 C 247.989 18.661,245.756 16.428,245.364 16.121 C 241.542 13.126,236.367 10.855,231.417 10.001 C 230.775 9.890,229.875 9.727,229.417 9.639 C 228.641 9.490,223.162 9.147,222.417 9.201 C 222.233 9.214,220.883 9.275,219.417 9.336 M363.083 9.340 C 361.525 9.404,359.725 9.534,359.083 9.630 C 358.442 9.726,357.167 9.890,356.250 9.995 C 355.333 10.100,354.058 10.288,353.417 10.412 C 352.775 10.536,351.762 10.728,351.167 10.838 C 349.795 11.092,346.392 11.969,346.027 12.162 C 345.874 12.242,345.430 12.426,345.038 12.571 C 341.624 13.830,341.111 15.189,341.671 21.491 C 342.097 26.285,342.642 26.995,345.023 25.867 C 345.790 25.504,346.604 25.151,346.833 25.083 C 347.063 25.015,347.325 24.901,347.417 24.830 C 347.654 24.647,350.411 23.749,351.500 23.501 C 352.004 23.386,352.636 23.226,352.903 23.145 C 355.230 22.441,363.602 22.135,366.583 22.644 C 373.517 23.829,376.977 27.094,377.684 33.123 C 378.405 39.263,375.192 43.988,369.541 45.101 C 367.742 45.456,363.547 45.208,356.167 44.313 C 353.878 44.036,349.290 43.845,348.975 44.014 C 347.893 44.593,347.187 47.788,347.172 52.171 C 347.162 55.217,346.753 55.097,356.960 55.025 C 369.308 54.938,372.902 55.533,377.000 58.340 C 378.506 59.372,380.500 61.779,380.500 62.565 C 380.500 62.702,380.572 62.858,380.660 62.913 C 381.851 63.648,382.109 70.701,381.061 73.832 C 377.980 83.034,362.547 85.280,348.039 78.640 C 347.422 78.357,345.979 77.679,344.833 77.133 C 343.376 76.438,342.677 76.185,342.508 76.291 C 342.102 76.546,341.652 77.246,341.508 77.846 C 341.379 78.387,340.295 81.956,339.436 84.667 C 339.218 85.354,338.835 86.578,338.585 87.386 L 338.130 88.856 338.509 89.260 C 339.264 90.063,342.697 91.461,348.083 93.159 C 350.408 93.892,354.986 94.798,359.068 95.333 C 363.483 95.912,371.798 95.911,375.083 95.332 C 379.475 94.557,381.842 93.882,384.796 92.560 C 385.280 92.344,385.709 92.167,385.749 92.167 C 385.810 92.167,387.774 90.993,388.676 90.417 C 388.820 90.325,389.214 90.074,389.552 89.859 C 389.890 89.643,390.167 89.399,390.167 89.317 C 390.167 89.234,390.273 89.167,390.403 89.167 C 390.533 89.167,390.664 89.110,390.694 89.042 C 390.725 88.973,391.191 88.546,391.731 88.093 C 399.145 81.866,401.489 68.440,396.715 59.545 C 395.562 57.397,391.997 53.333,391.265 53.333 C 391.230 53.333,390.810 53.071,390.332 52.749 C 389.575 52.240,388.322 51.606,385.933 50.523 L 385.283 50.229 385.855 49.957 C 388.648 48.632,392.593 44.158,393.901 40.833 C 394.064 40.421,394.256 40.008,394.328 39.917 C 395.595 38.312,396.505 31.349,395.917 27.763 C 394.466 18.906,386.289 11.934,375.083 10.001 C 374.442 9.890,373.542 9.727,373.083 9.639 C 372.334 9.495,366.781 9.142,366.167 9.200 C 366.029 9.213,364.642 9.276,363.083 9.340 M267.489 28.699 C 266.333 28.997,266.379 28.576,266.247 40.167 C 266.098 53.241,266.277 55.825,267.633 60.252 C 267.986 61.404,270.378 65.401,272.929 69.104 C 273.553 70.009,274.287 71.087,274.561 71.500 C 275.296 72.606,284.140 84.947,284.379 85.200 C 284.491 85.319,284.916 85.867,285.322 86.417 C 285.729 86.967,286.110 87.454,286.170 87.500 C 286.231 87.546,286.498 87.883,286.765 88.250 C 287.032 88.617,287.400 89.097,287.583 89.316 C 292.087 94.720,291.428 94.395,297.917 94.408 C 304.841 94.421,304.602 94.545,308.954 88.691 C 310.847 86.145,311.423 85.355,311.751 84.851 C 311.967 84.520,312.596 83.612,313.150 82.833 C 313.704 82.054,314.890 80.329,315.787 79.000 C 316.683 77.671,317.462 76.546,317.517 76.500 C 317.572 76.454,317.647 76.342,317.683 76.250 C 317.720 76.158,318.275 75.306,318.917 74.356 C 320.598 71.865,321.306 70.784,321.441 70.500 C 321.506 70.362,321.607 70.212,321.667 70.167 C 321.726 70.121,322.402 69.071,323.170 67.833 C 323.938 66.596,324.738 65.351,324.949 65.068 C 325.161 64.784,325.333 64.513,325.333 64.467 C 325.333 64.420,325.695 63.752,326.137 62.982 C 328.350 59.127,328.250 59.855,328.250 47.583 C 328.250 35.341,327.974 31.416,326.974 29.450 C 326.534 28.586,326.732 28.609,321.543 28.825 C 311.048 29.260,312.173 29.168,311.878 29.619 C 311.584 30.068,311.721 33.500,312.263 39.250 C 312.475 41.493,312.510 43.194,312.430 47.417 C 312.267 56.071,312.299 55.897,310.040 60.417 C 309.536 61.425,308.983 62.449,308.812 62.692 C 308.640 62.936,308.500 63.178,308.500 63.231 C 308.500 63.284,308.200 63.818,307.833 64.417 C 307.467 65.016,307.167 65.535,307.167 65.570 C 307.167 65.953,301.714 74.394,300.362 76.104 C 298.452 78.520,298.057 78.489,295.733 75.750 C 294.658 74.482,291.413 69.933,290.584 68.531 C 290.492 68.377,290.249 68.011,290.042 67.719 C 289.836 67.428,289.667 67.115,289.667 67.025 C 289.667 66.935,289.605 66.836,289.529 66.806 C 289.454 66.775,288.729 65.662,287.919 64.333 C 287.109 63.004,286.329 61.729,286.186 61.500 C 284.743 59.194,283.390 56.227,283.182 54.917 C 282.590 51.191,282.310 42.402,282.668 38.833 C 282.756 37.962,282.878 35.589,282.939 33.560 L 283.051 29.869 282.616 29.435 C 282.269 29.087,282.022 29.000,281.383 29.000 C 280.230 29.000,270.269 28.682,269.083 28.608 C 268.533 28.573,267.816 28.614,267.489 28.699 M304.921 99.801 C 304.775 99.947,304.827 103.522,305.034 107.583 C 305.141 109.692,305.234 116.217,305.239 122.083 L 305.250 132.750 307.946 132.796 C 310.527 132.840,310.646 132.827,310.749 132.504 C 310.808 132.318,310.772 128.236,310.669 123.433 C 310.484 114.824,310.655 105.871,311.100 100.875 C 311.151 100.302,311.131 99.822,311.055 99.808 C 310.654 99.733,304.995 99.727,304.921 99.801 M367.981 101.720 C 365.317 102.715,364.764 106.043,367.055 107.294 C 367.804 107.702,370.415 107.703,371.038 107.295 C 374.137 105.265,371.477 100.416,367.981 101.720 M195.645 102.611 C 195.467 102.828,195.417 103.704,195.417 106.624 C 195.417 110.908,195.444 110.831,193.926 110.836 C 192.656 110.840,192.333 111.278,192.333 113.000 C 192.333 114.785,192.641 115.160,194.105 115.164 C 195.632 115.168,195.541 114.669,195.475 122.620 C 195.410 130.371,195.414 130.400,196.566 131.639 C 197.911 133.085,200.870 133.557,204.667 132.932 C 207.594 132.450,207.721 132.318,207.911 129.583 C 208.050 127.590,208.205 127.659,204.917 128.253 C 200.997 128.961,200.721 128.482,200.791 121.083 C 200.840 115.895,200.921 115.239,201.506 115.277 C 205.067 115.511,207.106 115.524,207.277 115.313 C 207.387 115.178,207.489 114.158,207.524 112.833 L 207.583 110.583 204.333 110.500 L 201.083 110.417 201.102 107.959 C 201.112 106.607,201.169 105.089,201.228 104.585 C 201.365 103.418,201.081 103.084,199.810 102.923 C 199.319 102.861,198.376 102.703,197.715 102.572 C 196.181 102.267,195.925 102.272,195.645 102.611 M218.500 109.366 C 209.855 111.820,206.870 123.868,213.309 130.323 C 217.662 134.688,226.375 134.509,230.715 129.966 C 231.455 129.191,231.457 129.208,230.369 127.125 C 229.480 125.422,229.498 125.427,228.039 126.465 C 223.287 129.843,217.187 128.990,215.716 124.742 C 215.436 123.933,214.947 124.066,219.667 123.670 C 231.625 122.667,231.543 122.695,231.516 119.702 C 231.454 112.896,224.769 107.587,218.500 109.366 M241.833 109.516 C 234.007 111.768,230.816 121.566,235.638 128.544 C 236.308 129.515,238.073 131.281,238.512 131.421 C 238.689 131.477,238.833 131.577,238.833 131.644 C 238.833 131.760,240.556 132.668,241.250 132.918 C 241.865 133.139,244.076 133.493,244.862 133.497 C 246.944 133.505,251.132 132.203,251.191 131.530 C 251.278 130.521,250.764 127.647,250.386 127.036 C 250.156 126.662,250.142 126.661,249.701 126.953 C 246.664 128.963,243.376 128.645,240.934 126.104 C 237.806 122.850,238.756 116.945,242.719 115.006 C 244.896 113.941,246.311 113.984,248.969 115.194 C 250.172 115.741,250.251 115.721,250.665 114.753 C 251.536 112.722,251.673 111.309,251.042 110.872 C 248.788 109.313,244.656 108.704,241.833 109.516 M355.886 109.375 C 355.813 109.490,355.769 110.349,355.790 111.285 L 355.828 112.987 355.122 112.206 C 354.261 111.254,353.876 110.917,353.333 110.642 C 353.104 110.525,352.814 110.355,352.689 110.262 C 350.455 108.610,345.193 109.541,342.634 112.041 C 334.448 120.042,342.201 134.754,352.409 130.590 C 353.668 130.076,353.664 130.078,354.825 129.041 L 355.619 128.332 355.719 129.291 C 356.225 134.173,350.431 135.969,344.207 132.858 C 342.776 132.142,342.480 132.219,342.302 133.351 C 342.238 133.754,342.073 134.606,341.934 135.245 C 341.613 136.717,341.776 136.898,344.417 138.001 C 348.311 139.628,356.066 139.125,358.075 137.115 C 358.197 136.994,358.525 136.702,358.805 136.466 C 361.277 134.386,361.659 132.107,361.657 119.460 L 361.656 110.170 361.203 110.076 C 360.954 110.024,360.450 109.913,360.083 109.830 C 357.184 109.170,356.093 109.052,355.886 109.375 M385.083 109.412 C 377.218 110.510,372.749 120.765,377.109 127.705 C 377.324 128.047,377.501 128.384,377.503 128.455 C 377.505 128.584,377.971 129.139,379.144 130.412 C 382.707 134.277,388.117 134.482,392.564 130.919 C 393.925 129.828,393.958 129.822,394.078 130.625 C 394.484 133.363,394.475 133.358,397.823 132.977 C 399.851 132.746,399.705 133.096,399.487 129.000 C 399.031 120.420,399.083 117.655,399.780 113.481 C 400.148 111.274,400.089 111.113,398.795 110.791 C 395.452 109.958,395.218 110.019,394.835 111.825 C 394.561 113.117,394.516 113.136,393.712 112.287 C 392.697 111.216,392.011 110.711,390.792 110.137 C 390.631 110.062,390.352 109.926,390.172 109.835 C 389.845 109.671,387.125 109.151,386.770 109.184 C 386.667 109.194,385.908 109.296,385.083 109.412 M288.250 109.429 C 284.062 110.414,281.488 112.336,279.775 115.755 C 277.742 119.813,278.238 125.625,280.887 128.792 C 282.734 131.000,284.421 132.246,286.417 132.876 C 298.152 136.578,306.771 121.642,298.049 112.718 C 295.532 110.142,291.281 108.716,288.250 109.429 M322.833 109.719 C 319.111 110.751,316.128 113.650,314.872 117.455 C 314.361 119.003,314.227 123.118,314.642 124.500 C 318.724 138.065,337.165 135.549,337.238 121.417 C 337.280 113.265,330.347 107.635,322.833 109.719 M267.333 109.629 C 265.435 109.836,261.358 111.975,260.477 113.225 C 260.241 113.560,260.045 113.111,259.833 111.750 C 259.571 110.065,259.610 110.103,258.379 110.329 C 257.850 110.426,256.592 110.636,255.583 110.795 C 253.444 111.132,253.454 111.118,253.892 113.083 C 254.563 116.091,254.583 116.432,254.583 124.611 C 254.583 129.026,254.621 132.673,254.667 132.714 C 254.869 132.897,259.670 133.010,259.989 132.839 C 260.315 132.665,260.325 132.471,260.370 125.061 L 260.417 117.462 261.217 116.738 C 264.370 113.884,268.272 113.769,269.378 116.497 C 269.743 117.399,269.750 117.562,269.769 124.917 C 269.780 129.042,269.799 132.499,269.811 132.600 C 269.844 132.867,274.955 133.079,275.260 132.825 C 275.669 132.485,275.466 115.596,275.036 114.157 C 274.545 112.519,274.067 111.777,272.894 110.833 C 271.873 110.011,269.179 109.427,267.333 109.629 M365.896 110.701 C 365.744 110.947,365.816 113.380,366.038 115.500 C 366.168 116.747,366.228 120.035,366.210 124.908 C 366.190 130.064,366.237 132.467,366.361 132.617 C 366.613 132.920,371.586 132.928,371.782 132.625 C 371.856 132.510,371.920 128.929,371.924 124.667 C 371.929 120.098,372.019 115.737,372.144 114.042 C 372.431 110.159,372.766 110.542,369.076 110.542 C 367.302 110.542,365.952 110.609,365.896 110.701 M221.801 114.028 C 223.741 114.510,225.366 116.264,225.619 118.149 L 225.705 118.792 224.561 118.992 C 222.587 119.336,218.986 119.666,217.208 119.666 L 215.500 119.667 215.500 118.930 C 215.500 116.000,218.947 113.318,221.801 114.028 M352.455 114.663 C 354.704 115.631,356.140 118.757,355.652 121.625 C 354.488 128.456,346.481 128.658,345.083 121.891 C 344.054 116.907,348.206 112.835,352.455 114.663 M389.782 114.695 C 393.769 116.178,395.012 122.795,391.957 126.274 C 389.462 129.115,384.913 128.846,382.677 125.725 C 378.659 120.113,383.624 112.404,389.782 114.695 M292.572 115.012 C 295.762 116.513,297.227 120.994,295.652 124.431 C 292.707 130.857,283.871 128.671,283.804 121.500 C 283.756 116.409,288.337 113.019,292.572 115.012 M327.445 114.721 C 332.690 116.081,333.789 124.071,329.167 127.240 C 327.298 128.521,324.398 128.573,322.667 127.357 C 316.470 123.004,320.303 112.868,327.445 114.721 " stroke="none" fill="#ffffff" fill-rule="evenodd"></path><path id="path2" d="" stroke="none" fill="#ffffff" fill-rule="evenodd"></path><path id="path3" d="M56.409 0.297 C 55.750 0.849,55.754 0.781,55.396 19.382 C 55.231 27.915,55.649 32.517,56.948 36.465 C 57.375 37.764,57.692 38.393,59.111 40.750 C 59.608 41.575,60.105 42.400,60.215 42.583 C 60.326 42.767,60.585 43.155,60.791 43.447 C 60.998 43.739,61.167 44.058,61.167 44.156 C 61.167 44.253,61.242 44.333,61.333 44.333 C 61.425 44.333,61.500 44.400,61.500 44.481 C 61.500 44.613,64.544 49.228,65.760 50.939 C 66.030 51.317,66.342 51.767,66.454 51.939 C 66.770 52.420,71.313 58.895,71.470 59.088 C 71.547 59.182,71.753 59.482,71.928 59.754 C 72.228 60.221,73.115 61.447,73.553 62.000 C 73.662 62.137,74.124 62.775,74.580 63.417 C 75.593 64.842,77.886 67.930,78.355 68.500 C 78.543 68.729,78.888 69.198,79.121 69.542 C 79.354 69.885,79.609 70.167,79.689 70.167 C 79.768 70.167,79.833 70.241,79.833 70.331 C 79.833 70.521,79.884 70.584,82.000 73.039 C 84.659 76.124,84.674 76.129,90.833 76.273 C 98.505 76.453,98.917 76.344,101.333 73.497 C 101.837 72.903,102.288 72.379,102.334 72.333 C 102.501 72.167,104.290 69.899,104.764 69.253 C 105.031 68.888,105.340 68.476,105.450 68.337 C 106.367 67.178,109.179 63.265,110.124 61.833 C 110.457 61.329,111.372 60.015,112.156 58.913 C 112.941 57.811,114.108 56.123,114.750 55.163 C 115.392 54.203,115.954 53.379,116.000 53.333 C 116.046 53.288,116.158 53.124,116.250 52.971 C 116.342 52.817,117.383 51.242,118.563 49.471 C 119.744 47.699,120.876 45.987,121.080 45.667 C 121.283 45.346,121.712 44.671,122.033 44.167 C 123.266 42.228,123.775 41.408,123.892 41.167 C 123.958 41.029,124.104 40.767,124.216 40.583 C 127.036 35.954,127.201 34.894,127.231 21.250 C 127.257 8.705,126.686 2.302,125.418 0.934 C 124.945 0.423,124.576 0.405,119.750 0.656 C 118.100 0.742,114.994 0.861,112.848 0.920 C 107.817 1.058,108.167 0.849,108.166 3.728 C 108.165 4.932,108.273 7.042,108.406 8.417 C 108.902 13.551,109.002 15.349,109.002 19.167 C 109.002 26.421,108.531 31.625,107.698 33.571 C 107.271 34.571,105.241 38.594,105.002 38.917 C 104.934 39.008,104.692 39.421,104.465 39.833 C 104.025 40.631,103.089 42.251,102.828 42.667 C 102.741 42.804,101.934 44.117,101.033 45.583 C 96.173 53.501,93.634 56.926,92.370 57.269 C 91.664 57.461,90.304 56.225,88.373 53.636 C 87.941 53.057,87.531 52.558,87.461 52.528 C 87.391 52.497,87.333 52.366,87.333 52.236 C 87.333 52.106,87.263 52.000,87.178 52.000 C 87.092 52.000,86.979 51.863,86.926 51.696 C 86.873 51.529,86.699 51.246,86.540 51.067 C 86.380 50.888,85.584 49.731,84.771 48.496 C 83.957 47.261,83.086 45.950,82.836 45.583 C 81.243 43.254,76.924 35.901,76.129 34.167 C 74.906 31.498,74.852 31.254,74.417 26.500 C 74.090 22.925,74.086 14.989,74.409 11.417 C 74.700 8.200,74.924 2.049,74.771 1.443 C 74.575 0.660,73.958 0.500,71.133 0.499 C 69.731 0.498,67.083 0.387,65.250 0.251 C 60.529 -0.098,56.857 -0.079,56.409 0.297 M142.667 73.523 C 141.887 73.601,140.387 73.746,139.333 73.846 C 138.279 73.945,136.629 74.129,135.667 74.255 C 134.704 74.381,133.204 74.566,132.333 74.666 C 130.912 74.829,129.991 74.949,125.917 75.501 C 123.188 75.871,120.987 76.187,119.583 76.409 C 118.758 76.539,117.483 76.730,116.750 76.832 C 116.017 76.935,114.817 77.125,114.083 77.254 C 113.350 77.384,112.225 77.571,111.583 77.671 C 110.942 77.770,109.854 77.963,109.167 78.101 C 108.479 78.239,107.504 78.432,107.000 78.532 C 101.718 79.569,100.896 80.046,99.156 83.083 C 98.841 83.633,98.508 84.210,98.417 84.365 C 97.830 85.357,95.469 90.107,95.105 91.028 C 94.395 92.828,94.581 93.897,96.245 97.583 C 96.369 97.858,96.708 98.608,96.997 99.250 C 97.582 100.549,101.174 107.736,101.952 109.167 C 102.226 109.671,102.885 110.908,103.415 111.917 C 103.946 112.925,104.598 114.146,104.864 114.629 C 105.130 115.113,105.555 115.900,105.808 116.379 C 106.665 118.002,111.148 125.985,111.979 127.368 C 112.128 127.616,112.762 128.683,113.387 129.740 C 115.039 132.530,116.924 135.099,117.866 135.843 C 118.759 136.550,121.436 138.242,122.245 138.612 C 122.523 138.739,123.013 139.001,123.333 139.194 C 123.853 139.506,124.657 139.947,127.583 141.525 C 130.050 142.855,140.500 148.000,140.735 148.000 C 140.784 148.000,141.258 148.195,141.787 148.434 C 142.317 148.673,142.900 148.935,143.083 149.017 C 145.378 150.041,147.658 150.602,149.205 150.523 C 149.721 150.497,150.454 149.097,153.713 141.917 C 154.004 141.275,154.750 139.724,155.371 138.471 C 157.141 134.897,157.241 135.102,152.750 133.082 C 151.367 132.460,147.046 130.667,146.930 130.667 C 146.604 130.667,140.975 127.975,138.917 126.836 C 138.367 126.531,137.541 126.082,137.082 125.838 C 135.875 125.195,132.275 123.063,130.933 122.195 C 128.919 120.892,127.510 119.301,125.006 115.500 C 124.251 114.354,123.491 113.213,123.317 112.965 C 123.143 112.717,123.000 112.442,123.000 112.354 C 123.000 112.266,122.943 112.169,122.872 112.139 C 122.726 112.075,120.850 109.070,119.352 106.500 C 118.791 105.537,118.261 104.638,118.174 104.500 C 116.400 101.690,114.321 97.289,114.115 95.904 C 113.967 94.915,115.279 94.214,118.250 93.691 C 121.822 93.063,122.829 92.926,127.583 92.429 C 138.712 91.266,143.939 91.270,146.917 92.444 C 149.472 93.451,150.882 94.029,151.155 94.178 C 151.299 94.258,151.942 94.558,152.583 94.847 C 155.954 96.363,160.285 98.692,164.000 100.986 C 165.054 101.638,166.029 102.220,166.167 102.280 C 166.304 102.341,166.792 102.626,167.250 102.915 C 171.557 105.628,172.619 105.822,173.503 104.056 C 173.725 103.613,174.066 102.987,174.260 102.667 C 174.455 102.346,174.863 101.633,175.168 101.083 C 175.472 100.533,175.859 99.858,176.026 99.583 C 176.193 99.308,176.384 98.971,176.449 98.833 C 176.513 98.696,177.009 97.833,177.551 96.917 C 178.092 96.000,178.764 94.837,179.045 94.333 C 179.325 93.829,179.680 93.192,179.833 92.917 C 179.987 92.642,180.359 91.972,180.662 91.427 C 181.733 89.498,181.471 88.920,178.917 87.579 C 178.092 87.146,177.192 86.661,176.917 86.501 C 176.642 86.342,175.908 85.936,175.287 85.600 C 174.665 85.264,173.915 84.853,173.620 84.688 C 172.430 84.022,171.198 83.344,170.250 82.834 C 169.700 82.538,168.950 82.126,168.583 81.918 C 168.217 81.711,167.408 81.267,166.787 80.931 C 166.165 80.596,165.378 80.164,165.037 79.971 C 163.930 79.343,159.296 77.051,157.500 76.242 C 154.591 74.931,151.925 74.054,149.200 73.510 C 148.184 73.307,144.741 73.314,142.667 73.523 M31.833 73.919 C 27.866 74.680,20.428 77.880,14.583 81.341 C 14.308 81.504,13.746 81.819,13.333 82.041 C 12.921 82.263,10.633 83.532,8.250 84.861 C 5.867 86.191,3.392 87.564,2.750 87.914 C 2.108 88.264,1.433 88.633,1.250 88.734 C -0.350 89.613,-0.380 90.294,1.067 92.882 C 2.100 94.727,2.689 95.740,3.126 96.423 C 3.241 96.603,3.388 96.862,3.451 97.000 C 3.515 97.138,4.358 98.604,5.325 100.259 C 6.292 101.914,7.271 103.630,7.500 104.071 C 8.722 106.425,9.131 106.392,13.917 103.555 C 14.100 103.447,14.490 103.233,14.784 103.080 C 15.078 102.928,15.406 102.697,15.513 102.568 C 15.620 102.439,15.772 102.333,15.852 102.333 C 15.931 102.333,16.878 101.783,17.956 101.111 C 19.034 100.439,20.029 99.836,20.167 99.771 C 20.304 99.707,20.567 99.562,20.750 99.451 C 24.307 97.283,30.217 94.462,35.500 92.408 C 37.245 91.730,43.379 91.736,50.667 92.425 C 52.087 92.559,54.075 92.746,55.083 92.840 C 58.429 93.152,62.364 93.731,64.167 94.175 C 67.082 94.894,67.272 95.032,67.101 96.319 C 66.951 97.450,65.884 99.889,64.324 102.667 C 63.990 103.263,63.529 104.087,63.300 104.500 C 62.848 105.317,61.912 106.934,61.661 107.333 C 61.575 107.471,60.633 109.008,59.568 110.750 C 55.934 116.693,53.311 120.376,51.969 121.417 C 51.614 121.692,51.219 122.010,51.091 122.125 C 50.962 122.240,50.803 122.333,50.736 122.333 C 50.669 122.333,50.369 122.521,50.067 122.751 C 49.550 123.145,45.372 125.667,45.236 125.667 C 45.200 125.667,44.814 125.886,44.378 126.155 C 41.800 127.740,37.649 129.757,32.917 131.722 C 28.484 133.564,25.901 134.776,25.292 135.300 C 24.768 135.751,24.976 136.432,26.762 140.116 C 27.731 142.115,28.699 144.125,28.913 144.583 C 30.423 147.814,31.903 150.769,32.062 150.872 C 32.615 151.232,36.787 150.409,37.408 149.817 C 37.495 149.735,37.669 149.667,37.794 149.667 C 37.918 149.667,38.447 149.473,38.969 149.237 C 39.490 149.000,40.067 148.740,40.250 148.660 C 43.435 147.256,49.233 144.366,53.750 141.929 C 54.575 141.484,55.625 140.919,56.083 140.674 C 57.697 139.810,59.251 138.934,59.333 138.843 C 59.379 138.792,59.679 138.619,60.000 138.459 C 60.672 138.124,60.782 138.056,62.579 136.858 C 63.315 136.367,64.165 135.692,64.467 135.358 C 65.006 134.764,67.000 131.910,67.000 131.733 C 67.000 131.684,67.169 131.406,67.375 131.114 C 67.814 130.493,67.828 130.472,69.198 128.087 C 70.608 125.634,71.108 124.755,71.712 123.667 C 71.992 123.162,72.347 122.525,72.500 122.250 C 73.123 121.132,73.823 119.854,74.414 118.750 C 74.757 118.108,75.245 117.208,75.497 116.750 C 76.784 114.411,79.369 109.445,81.180 105.833 C 82.645 102.910,83.304 101.542,84.731 98.462 C 86.394 94.872,86.848 93.058,86.414 91.745 C 86.075 90.723,84.209 86.888,83.162 85.063 C 82.735 84.318,82.333 83.606,82.269 83.480 C 81.748 82.446,80.344 80.518,79.955 80.301 C 79.385 79.982,78.517 79.675,77.417 79.400 C 76.867 79.263,76.004 79.049,75.500 78.924 C 74.996 78.799,74.058 78.610,73.417 78.503 C 72.775 78.396,71.725 78.208,71.083 78.084 C 70.442 77.961,69.354 77.777,68.667 77.675 C 67.979 77.573,66.779 77.385,66.000 77.257 C 65.221 77.129,63.946 76.942,63.167 76.840 C 62.387 76.739,61.000 76.548,60.083 76.417 C 56.773 75.943,54.888 75.688,53.333 75.504 C 52.462 75.401,50.962 75.213,50.000 75.087 C 49.038 74.961,47.425 74.774,46.417 74.672 C 45.408 74.570,43.608 74.378,42.417 74.247 C 37.001 73.648,33.770 73.548,31.833 73.919 " stroke="none" fill="#ffffff" fill-rule="evenodd"></path><path id="path4" d="" stroke="none" fill="#ffffff" fill-rule="evenodd"></path></g></svg>